<svg aria-hidden="true" style="position: absolute; width: 0; height: 0; overflow: hidden;" version="1.1" xmlns="http://www.w3.org/2000/svg" xmlns:xlink="http://www.w3.org/1999/xlink">
<defs>
<symbol id="icon-bookmark" viewBox="0 0 20 20">
<title>bookmark</title>
<path d="M14 2v17l-4-4-4 4v-17c0-0.553 0.585-1.020 1-1h6c0.689-0.020 1 0.447 1 1z"></path>
</symbol>
<symbol id="icon-bookmarks" viewBox="0 0 20 20">
<title>bookmarks</title>
<path d="M15 0h-4c-0.553 0-1 0.447-1 1l0.023 0.222c1.102 0 2 0.897 2 2v11.359l0.977-1.181 3 3.6v-16c0-0.553-0.447-1-1-1zM9.023 3h-4.023c-0.553 0-1 0.447-1 1v16l3-3.6 3 3.6v-16c0-0.553-0.424-1-0.977-1z"></path>
</symbol>
<symbol id="icon-chevron-right" viewBox="0 0 20 20">
<title>chevron-right</title>
<path d="M9.163 4.516c0.418 0.408 4.502 4.695 4.502 4.695 0.223 0.219 0.335 0.504 0.335 0.789s-0.112 0.57-0.335 0.787c0 0-4.084 4.289-4.502 4.695-0.418 0.408-1.17 0.436-1.615 0-0.446-0.434-0.481-1.041 0-1.574l3.747-3.908-3.747-3.908c-0.481-0.533-0.446-1.141 0-1.576s1.197-0.409 1.615 0z"></path>
</symbol>
<symbol id="icon-chevron-small-down" viewBox="0 0 20 20">
<title>chevron-small-down</title>
<path d="M13.418 7.859c0.271-0.268 0.709-0.268 0.978 0s0.272 0.701 0 0.969l-3.908 3.83c-0.27 0.268-0.707 0.268-0.979 0l-3.908-3.83c-0.27-0.267-0.27-0.701 0-0.969s0.709-0.268 0.978 0l3.421 3.141 3.418-3.141z"></path>
</symbol>
<symbol id="icon-chevron-thin-down" viewBox="0 0 20 20">
<title>chevron-thin-down</title>
<path d="M17.418 6.109c0.272-0.268 0.709-0.268 0.979 0s0.271 0.701 0 0.969l-7.908 7.83c-0.27 0.268-0.707 0.268-0.979 0l-7.908-7.83c-0.27-0.268-0.27-0.701 0-0.969s0.709-0.268 0.979 0l7.419 7.141 7.418-7.141z"></path>
</symbol>
<symbol id="icon-chevron-thin-up" viewBox="0 0 20 20">
<title>chevron-thin-up</title>
<path d="M2.582 13.891c-0.272 0.268-0.709 0.268-0.979 0s-0.271-0.701 0-0.969l7.908-7.83c0.27-0.268 0.707-0.268 0.979 0l7.908 7.83c0.27 0.268 0.27 0.701 0 0.969s-0.709 0.268-0.978 0l-7.42-7.141-7.418 7.141z"></path>
</symbol>
<symbol id="icon-chevron-thin-right" viewBox="0 0 20 20">
<title>chevron-thin-right</title>
<path d="M13.25 10l-7.141-7.42c-0.268-0.27-0.268-0.707 0-0.979 0.268-0.27 0.701-0.27 0.969 0l7.83 7.908c0.268 0.271 0.268 0.709 0 0.979l-7.83 7.908c-0.268 0.271-0.701 0.27-0.969 0s-0.268-0.707 0-0.979l7.141-7.417z"></path>
</symbol>
<symbol id="icon-controller-record" viewBox="0 0 20 20">
<title>controller-record</title>
<path d="M10 3c-3.866 0-7 3.133-7 7 0 3.865 3.134 7 7 7s7-3.135 7-7c0-3.867-3.134-7-7-7z"></path>
</symbol>
<symbol id="icon-dots-three-horizontal" viewBox="0 0 20 20">
<title>dots-three-horizontal</title>
<path d="M10.001 7.8c-1.215 0-2.201 0.985-2.201 2.2s0.986 2.2 2.201 2.2c1.215 0 2.199-0.985 2.199-2.2s-0.984-2.2-2.199-2.2zM3.001 7.8c-1.215 0-2.201 0.985-2.201 2.2s0.986 2.2 2.201 2.2c1.215 0 2.199-0.986 2.199-2.2s-0.984-2.2-2.199-2.2zM17.001 7.8c-1.215 0-2.201 0.985-2.201 2.2s0.986 2.2 2.201 2.2c1.215 0 2.199-0.985 2.199-2.2s-0.984-2.2-2.199-2.2z"></path>
</symbol>
<symbol id="icon-triangle-down" viewBox="0 0 20 20">
<title>triangle-down</title>
<path d="M5 6h10l-5 9-5-9z"></path>
</symbol>
<symbol id="icon-briefcase" viewBox="0 0 20 20">
<title>briefcase</title>
<path d="M9 10h2v2h9c0 0-0.149-4.459-0.2-5.854-0.050-1.326-0.525-2.146-2-2.146h-3.208c-0.497-0.938-1.032-1.945-1.197-2.256-0.331-0.623-0.444-0.744-1.179-0.744h-4.433c-0.735 0-0.847 0.121-1.179 0.744-0.165 0.311-0.7 1.318-1.196 2.256h-3.209c-1.476 0-1.945 0.82-2 2.146s-0.199 5.854-0.199 5.854h9v-2zM7.649 2.916c0.23-0.432 0.308-0.516 0.817-0.516h3.067c0.509 0 0.588 0.084 0.816 0.516 0.086 0.16 0.318 0.6 0.575 1.084h-5.85c0.257-0.484 0.489-0.924 0.575-1.084zM11 15h-2v-2h-8.5c0 0 0.124 1.797 0.199 3.322 0.031 0.633 0.218 1.678 1.8 1.678h15.001c1.582 0 1.765-1.047 1.8-1.678 0.087-1.568 0.2-3.322 0.2-3.322h-8.5v2z"></path>
</symbol>
<symbol id="icon-chat" viewBox="0 0 20 20">
<title>chat</title>
<path d="M5.8 12.2v-6.2h-3.8c-1.1 0-2 0.9-2 2v6c0 1.1 0.9 2 2 2h1v3l3-3h5c1.1 0 2-0.9 2-2v-1.82c-0.064 0.014-0.132 0.021-0.2 0.021l-7-0.001zM18 1h-9c-1.1 0-2 0.9-2 2v8h7l3 3v-3h1c1.1 0 2-0.899 2-2v-6c0-1.1-0.9-2-2-2z"></path>
</symbol>
<symbol id="icon-dial-pad" viewBox="0 0 20 20">
<title>dial-pad</title>
<path d="M6 0h-2c-0.552 0-1 0.448-1 1v2c0 0.552 0.448 1 1 1h2c0.552 0 1-0.448 1-1v-2c0-0.552-0.448-1-1-1zM11 0h-2c-0.552 0-1 0.448-1 1v2c0 0.552 0.448 1 1 1h2c0.552 0 1-0.448 1-1v-2c0-0.552-0.448-1-1-1zM16 0h-2c-0.552 0-1 0.448-1 1v2c0 0.552 0.448 1 1 1h2c0.552 0 1-0.448 1-1v-2c0-0.552-0.448-1-1-1zM6 5h-2c-0.552 0-1 0.448-1 1v2c0 0.552 0.448 1 1 1h2c0.552 0 1-0.448 1-1v-2c0-0.552-0.448-1-1-1zM11 5h-2c-0.552 0-1 0.448-1 1v2c0 0.552 0.448 1 1 1h2c0.552 0 1-0.448 1-1v-2c0-0.552-0.448-1-1-1zM16 5h-2c-0.552 0-1 0.448-1 1v2c0 0.552 0.448 1 1 1h2c0.552 0 1-0.448 1-1v-2c0-0.552-0.448-1-1-1zM6 10h-2c-0.552 0-1 0.448-1 1v2c0 0.552 0.448 1 1 1h2c0.552 0 1-0.448 1-1v-2c0-0.552-0.448-1-1-1zM11 10h-2c-0.552 0-1 0.448-1 1v2c0 0.552 0.448 1 1 1h2c0.552 0 1-0.448 1-1v-2c0-0.552-0.448-1-1-1zM11 16h-2c-0.552 0-1 0.448-1 1v2c0 0.552 0.448 1 1 1h2c0.552 0 1-0.448 1-1v-2c0-0.552-0.448-1-1-1zM16 10h-2c-0.552 0-1 0.448-1 1v2c0 0.552 0.448 1 1 1h2c0.552 0 1-0.448 1-1v-2c0-0.552-0.448-1-1-1z"></path>
</symbol>
<symbol id="icon-magnifying-glass" viewBox="0 0 20 20">
<title>magnifying-glass</title>
<path d="M17.545 15.467l-3.779-3.779c0.57-0.935 0.898-2.035 0.898-3.21 0-3.417-2.961-6.377-6.378-6.377s-6.186 2.769-6.186 6.186c0 3.416 2.961 6.377 6.377 6.377 1.137 0 2.2-0.309 3.115-0.844l3.799 3.801c0.372 0.371 0.975 0.371 1.346 0l0.943-0.943c0.371-0.371 0.236-0.84-0.135-1.211zM4.004 8.287c0-2.366 1.917-4.283 4.282-4.283s4.474 2.107 4.474 4.474c0 2.365-1.918 4.283-4.283 4.283s-4.473-2.109-4.473-4.474z"></path>
</symbol>
<symbol id="icon-new-message" viewBox="0 0 20 20">
<title>new-message</title>
<path d="M18.174 1.826c-1.102-1.102-2.082-0.777-2.082-0.777l-8.639 8.632-1.453 4.319 4.317-1.454 8.634-8.638c0 0 0.324-0.98-0.777-2.082zM10.605 11.605l-0.471 0.47-1.473 0.5c-0.104-0.24-0.234-0.477-0.498-0.74s-0.5-0.394-0.74-0.498l0.5-1.473 0.471-0.47c0 0 0.776-0.089 1.537 0.673 0.762 0.761 0.674 1.538 0.674 1.538zM16 17h-13v-13h5l2-2h-7c-1.1 0-2 0.9-2 2v13c0 1.1 0.9 2 2 2h13c1.1 0 2-0.9 2-2v-7l-2 2v5z"></path>
</symbol>
<symbol id="icon-plus" viewBox="0 0 20 20">
<title>plus</title>
<path d="M16 10c0 0.553-0.048 1-0.601 1h-4.399v4.399c0 0.552-0.447 0.601-1 0.601s-1-0.049-1-0.601v-4.399h-4.399c-0.552 0-0.601-0.447-0.601-1s0.049-1 0.601-1h4.399v-4.399c0-0.553 0.447-0.601 1-0.601s1 0.048 1 0.601v4.399h4.399c0.553 0 0.601 0.447 0.601 1z"></path>
</symbol>
<symbol id="icon-linkedin" viewBox="0 0 20 20">
<title>linkedin</title>
<path d="M5 3c0 1.062-0.71 1.976-2.001 1.976-1.215 0-1.999-0.862-1.999-1.924 0-1.090 0.76-2.052 2-2.052s1.976 0.91 2 2zM1 19v-13h4v13h-4z"></path>
<path d="M7 10.444c0-1.545-0.051-2.836-0.102-3.951h3.594l0.178 1.723h0.076c0.506-0.811 1.746-2 3.822-2 2.532 0 4.432 1.695 4.432 5.342v7.442h-4v-6.861c0-1.594-0.607-2.81-2-2.81-1.062 0-1.594 0.86-1.873 1.569-0.102 0.254-0.127 0.608-0.127 0.963v7.139h-4v-8.556z"></path>
</symbol>
<symbol id="icon-error_outline" viewBox="0 0 24 24">
<title>error_outline</title>
<path d="M12 20.016q3.281 0 5.648-2.367t2.367-5.648-2.367-5.648-5.648-2.367-5.648 2.367-2.367 5.648 2.367 5.648 5.648 2.367zM12 2.016q4.125 0 7.055 2.93t2.93 7.055-2.93 7.055-7.055 2.93-7.055-2.93-2.93-7.055 2.93-7.055 7.055-2.93zM11.016 6.984h1.969v6h-1.969v-6zM11.016 15h1.969v2.016h-1.969v-2.016z"></path>
</symbol>
<symbol id="icon-videocam" viewBox="0 0 24 24">
<title>videocam</title>
<path d="M17.016 10.5l3.984-3.984v10.969l-3.984-3.984v3.516q0 0.422-0.305 0.703t-0.727 0.281h-12q-0.422 0-0.703-0.281t-0.281-0.703v-10.031q0-0.422 0.281-0.703t0.703-0.281h12q0.422 0 0.727 0.281t0.305 0.703v3.516z"></path>
</symbol>
<symbol id="icon-forumquestion_answer" viewBox="0 0 24 24">
<title>forumquestion_answer</title>
<path d="M17.016 12q0 0.422-0.305 0.703t-0.727 0.281h-9.984l-3.984 4.031v-14.016q0-0.422 0.281-0.703t0.703-0.281h12.984q0.422 0 0.727 0.281t0.305 0.703v9zM21 6q0.422 0 0.703 0.281t0.281 0.703v15l-3.984-3.984h-11.016q-0.422 0-0.703-0.281t-0.281-0.703v-2.016h12.984v-9h2.016z"></path>
</symbol>
<symbol id="icon-insert_comment" viewBox="0 0 24 24">
<title>insert_comment</title>
<path d="M18 8.016v-2.016h-12v2.016h12zM18 11.016v-2.016h-12v2.016h12zM18 14.016v-2.016h-12v2.016h12zM20.016 2.016q0.797 0 1.383 0.586t0.586 1.383v18l-3.984-3.984h-14.016q-0.797 0-1.383-0.609t-0.586-1.406v-12q0-0.797 0.586-1.383t1.383-0.586h16.031z"></path>
</symbol>
<symbol id="icon-camera_altphoto_cameralocal_see" viewBox="0 0 24 24">
<title>camera_altphoto_cameralocal_see</title>
<path d="M12 17.016q2.063 0 3.539-1.477t1.477-3.539-1.477-3.539-3.539-1.477-3.539 1.477-1.477 3.539 1.477 3.539 3.539 1.477zM9 2.016h6l1.828 1.969h3.188q0.797 0 1.383 0.609t0.586 1.406v12q0 0.797-0.586 1.406t-1.383 0.609h-16.031q-0.797 0-1.383-0.609t-0.586-1.406v-12q0-0.797 0.586-1.406t1.383-0.609h3.188zM8.813 12q0-1.313 0.938-2.25t2.25-0.938 2.25 0.938 0.938 2.25-0.938 2.25-2.25 0.938-2.25-0.938-0.938-2.25z"></path>
</symbol>
<symbol id="icon-apps" viewBox="0 0 24 24">
<title>apps</title>
<path d="M15.984 20.016v-4.031h4.031v4.031h-4.031zM15.984 14.016v-4.031h4.031v4.031h-4.031zM9.984 8.016v-4.031h4.031v4.031h-4.031zM15.984 3.984h4.031v4.031h-4.031v-4.031zM9.984 14.016v-4.031h4.031v4.031h-4.031zM3.984 14.016v-4.031h4.031v4.031h-4.031zM3.984 20.016v-4.031h4.031v4.031h-4.031zM9.984 20.016v-4.031h4.031v4.031h-4.031zM3.984 8.016v-4.031h4.031v4.031h-4.031z"></path>
</symbol>
<symbol id="icon-arrow_drop_down" viewBox="0 0 24 24">
<title>arrow_drop_down</title>
<path d="M6.984 9.984h10.031l-5.016 5.016z"></path>
</symbol>
<symbol id="icon-grouppeople" viewBox="0 0 24 24">
<title>grouppeople</title>
<path d="M15.984 12.984q1.313 0 2.859 0.375t2.859 1.219 1.313 1.922v2.484h-6v-2.484q0-2.063-1.969-3.469 0.328-0.047 0.938-0.047zM8.016 12.984q1.313 0 2.859 0.375t2.836 1.219 1.289 1.922v2.484h-14.016v-2.484q0-1.078 1.313-1.922t2.859-1.219 2.859-0.375zM8.016 11.016q-1.219 0-2.109-0.891t-0.891-2.109 0.891-2.109 2.109-0.891 2.086 0.891 0.867 2.109-0.867 2.109-2.086 0.891zM15.984 11.016q-1.219 0-2.109-0.891t-0.891-2.109 0.891-2.109 2.109-0.891 2.109 0.891 0.891 2.109-0.891 2.109-2.109 0.891z"></path>
</symbol>
<symbol id="icon-group_add" viewBox="0 0 24 24">
<title>group_add</title>
<path d="M12.984 12.984q1.875 0 3.938 0.82t2.063 2.18v2.016h-12v-2.016q0-1.359 2.063-2.18t3.938-0.82zM19.641 13.172q1.734 0.281 3.047 1.008t1.313 1.805v2.016h-3v-2.016q0-1.594-1.359-2.813zM12.984 11.016q-1.219 0-2.109-0.891t-0.891-2.109 0.891-2.109 2.109-0.891 2.109 0.891 0.891 2.109-0.891 2.109-2.109 0.891zM18 11.016q-0.469 0-0.891-0.141 0.891-1.266 0.891-2.859t-0.891-2.859q0.422-0.141 0.891-0.141 1.219 0 2.109 0.891t0.891 2.109-0.891 2.109-2.109 0.891zM8.016 9.984v2.016h-3v3h-2.016v-3h-3v-2.016h3v-3h2.016v3h3z"></path>
</symbol>
<symbol id="icon-notifications_active" viewBox="0 0 24 24">
<title>notifications_active</title>
<path d="M12 21.984q-0.844 0-1.43-0.586t-0.586-1.383h3.984q0 0.844-0.563 1.406t-1.406 0.563zM18 11.016v4.969l2.016 2.016v0.984h-16.031v-0.984l2.016-2.016v-4.969q0-2.344 1.195-4.078t3.305-2.25v-0.703q0-0.609 0.422-1.055t1.078-0.445 1.078 0.445 0.422 1.055v0.703q2.109 0.516 3.305 2.25t1.195 4.078zM19.969 10.5q-0.094-1.688-1.125-3.563t-2.391-2.859l1.406-1.406q3.891 3 4.125 7.828h-2.016zM7.594 4.078q-1.359 0.984-2.414 2.859t-1.148 3.563h-2.016q0.234-4.828 4.125-7.828z"></path>
</symbol>
<symbol id="icon-people_outline" viewBox="0 0 24 24">
<title>people_outline</title>
<path d="M16.5 6.516q-0.797 0-1.406 0.586t-0.609 1.383 0.609 1.406 1.406 0.609 1.406-0.609 0.609-1.406-0.609-1.383-1.406-0.586zM16.5 12q-1.453 0-2.484-1.031t-1.031-2.484 1.031-2.461 2.484-1.008 2.484 1.008 1.031 2.461-1.031 2.484-2.484 1.031zM7.5 6.516q-0.797 0-1.406 0.586t-0.609 1.383 0.609 1.406 1.406 0.609 1.406-0.609 0.609-1.406-0.609-1.383-1.406-0.586zM7.5 12q-1.453 0-2.484-1.031t-1.031-2.484 1.031-2.461 2.484-1.008 2.484 1.008 1.031 2.461-1.031 2.484-2.484 1.031zM21.516 17.484v-1.219q0-0.469-1.664-1.125t-3.352-0.656q-1.219 0-3 0.563 0.516 0.609 0.516 1.219v1.219h7.5zM12.516 17.484v-1.219q0-0.469-1.664-1.125t-3.352-0.656-3.352 0.656-1.664 1.125v1.219h10.031zM16.5 12.984q2.016 0 4.266 0.914t2.25 2.367v2.719h-22.031v-2.719q0-1.453 2.25-2.367t4.266-0.914q2.203 0 4.5 1.031 2.297-1.031 4.5-1.031z"></path>
</symbol>
<symbol id="icon-share" viewBox="0 0 24 24">
<title>share</title>
<path d="M18 16.078q1.219 0 2.063 0.867t0.844 2.039q0 1.219-0.867 2.086t-2.039 0.867-2.039-0.867-0.867-2.086q0-0.469 0.047-0.656l-7.078-4.125q-0.891 0.797-2.063 0.797-1.219 0-2.109-0.891t-0.891-2.109 0.891-2.109 2.109-0.891q1.172 0 2.063 0.797l7.031-4.078q-0.094-0.469-0.094-0.703 0-1.219 0.891-2.109t2.109-0.891 2.109 0.891 0.891 2.109-0.891 2.109-2.109 0.891q-1.125 0-2.063-0.844l-7.031 4.125q0.094 0.469 0.094 0.703t-0.094 0.703l7.125 4.125q0.844-0.75 1.969-0.75z"></path>
</symbol>
<symbol id="icon-favorite_outline" viewBox="0 0 24 24">
<title>favorite_outline</title>
<path d="M12.094 18.563q2.25-2.016 3.328-3.047t2.344-2.438 1.758-2.484 0.492-2.109q0-1.5-1.008-2.484t-2.508-0.984q-1.172 0-2.18 0.656t-1.383 1.688h-1.875q-0.375-1.031-1.383-1.688t-2.18-0.656q-1.5 0-2.508 0.984t-1.008 2.484q0 1.031 0.492 2.109t1.758 2.484 2.344 2.438 3.328 3.047l0.094 0.094zM16.5 3q2.344 0 3.914 1.594t1.57 3.891q0 1.359-0.516 2.648t-1.898 2.883-2.508 2.672-3.609 3.328l-1.453 1.313-1.453-1.266q-3.234-2.906-4.664-4.359t-2.648-3.422-1.219-3.797q0-2.297 1.57-3.891t3.914-1.594q2.719 0 4.5 2.109 1.781-2.109 4.5-2.109z"></path>
</symbol>
<symbol id="icon-home" viewBox="0 0 24 24">
<title>home</title>
<path d="M9.984 20.016h-4.969v-8.016h-3l9.984-9 9.984 9h-3v8.016h-4.969v-6h-4.031v6z"></path>
</symbol>
<symbol id="icon-lightbulb_outline" viewBox="0 0 24 24">
<title>lightbulb_outline</title>
<path d="M14.859 13.078q2.156-1.5 2.156-4.078 0-2.063-1.477-3.539t-3.539-1.477-3.539 1.477-1.477 3.539q0 1.078 0.633 2.25t1.523 1.828l0.844 0.609v2.297h4.031v-2.297zM12 2.016q2.906 0 4.945 2.039t2.039 4.945q0 3.656-3 5.719v2.297q0 0.422-0.281 0.703t-0.703 0.281h-6q-0.422 0-0.703-0.281t-0.281-0.703v-2.297q-3-2.063-3-5.719 0-2.906 2.039-4.945t4.945-2.039zM9 21v-0.984h6v0.984q0 0.422-0.281 0.703t-0.703 0.281h-4.031q-0.422 0-0.703-0.281t-0.281-0.703z"></path>
</symbol>
<symbol id="icon-upload_file" viewBox="0 0 24 24">
<title>upload_file</title>
<path d="M8.016 15l3.984-3.984 3.984 3.984-1.406 1.453-1.594-1.594v4.125h-1.969v-4.125l-1.594 1.547zM18 20.016v-11.016h-5.016v-5.016h-6.984v16.031h12zM14.016 2.016l6 6v12q0 0.797-0.609 1.383t-1.406 0.586h-12q-0.797 0-1.406-0.586t-0.609-1.383l0.047-16.031q0-0.797 0.586-1.383t1.383-0.586h8.016z"></path>
</symbol>
<symbol id="icon-tag" viewBox="0 0 24 24">
<title>tag</title>
<path d="M14.016 14.016v-4.031h-4.031v4.031h4.031zM20.016 9.984h-4.031v4.031h4.031v1.969h-4.031v4.031h-1.969v-4.031h-4.031v4.031h-1.969v-4.031h-4.031v-1.969h4.031v-4.031h-4.031v-1.969h4.031v-4.031h1.969v4.031h4.031v-4.031h1.969v4.031h4.031v1.969z"></path>
</symbol>
</defs>
</svg>
